# xmcd
#
# Track frame offsets:
#	150
#	10945
#	21958
#	32423
#	45405
#	56380
#	69368
#	80108
#	95180
#	105408
#	115933
#	129198
#	140105
#	150448
#	160573
#	172570
#	189435
#	198895
#	210405
#	222830
#	234363
#	244300
#	257305
#	270473
#
# Disc length: 3731 seconds
# Revision: 0
# Processed by: cddbd v1.5.2PL0 Copyright (c) Steve Scherf et al.
# Submitted via: dBpowerAMP V12.0
#
DISCID=2c0e9118
DTITLE=Danny Davis - Danny Davis And The Nashville Brass
DYEAR=1994
DGENRE=Country
TTITLE0=Dan Antonino Rose
TTITLE1=Relaease Me
TTITLE2=Java
TTITLE3=Blue Eyes Crying In The Rain
TTITLE4=El Paso
TTITLE5=Moonlight Serenade
TTITLE6=Down Yonder
TTITLE7=Are You Lonesome Tonight
TTITLE8=Jealous Heart
TTITLE9=Jambalaya
TTITLE10=I Love You Because
TTITLE11=Sweet Dreams
TTITLE12=Snowbird
TTITLE13=Tennessee Waltz
TTITLE14=Melodie D'amour
TTITLE15=Somewhere My Love
TTITLE16=Yellow Rose Of Texas
TTITLE17=Room Full Of Roses
TTITLE18=I Can't Stop Loving You
TTITLE19=Crazy Arms
TTITLE20=I Fall To Pieces
TTITLE21=Paloma Blanca
TTITLE22=Anytime
TTITLE23=Green Green Grass Of Home
EXTD=
EXTT0=
EXTT1=
EXTT2=
EXTT3=
EXTT4=
EXTT5=
EXTT6=
EXTT7=
EXTT8=
EXTT9=
EXTT10=
EXTT11=
EXTT12=
EXTT13=
EXTT14=
EXTT15=
EXTT16=
EXTT17=
EXTT18=
EXTT19=
EXTT20=
EXTT21=
EXTT22=
EXTT23=
PLAYORDER=
